HIERARCHY
ROOT Hips
{
	OFFSET 0.00000 0.00000 0.00000
	CHANNELS 6 Xposition Yposition Zposition Zrotation Yrotation Xrotation 
	JOINT LHipJoint
	{
		OFFSET 0 0 0
		CHANNELS 3 Zrotation Yrotation Xrotation
		JOINT LeftHip
		{
			OFFSET 1.41496 -1.84582 0.78394
			CHANNELS 3 Zrotation Yrotation Xrotation
			JOINT LeftKnee
			{
				OFFSET 2.58040 -7.08960 0.00000
				CHANNELS 3 Zrotation Yrotation Xrotation
				JOINT LeftAnkle
				{
					OFFSET 2.64719 -7.27309 0.00000
					CHANNELS 3 Zrotation Yrotation Xrotation
					JOINT LeftToe
					{
						OFFSET 0.20718 -0.56921 2.20259
						CHANNELS 3 Zrotation Yrotation Xrotation
						End Site
						{
							OFFSET 0.00000 -0.00000 1.14243
						}
					}
				}
			}
		}
	}
	JOINT RHipJoint
	{
		OFFSET 0 0 0
		CHANNELS 3 Zrotation Yrotation Xrotation
		JOINT RightHip
		{
			OFFSET -1.40551 -1.84582 0.78394
			CHANNELS 3 Zrotation Yrotation Xrotation
			JOINT RightKnee
			{
				OFFSET -2.56572 -7.04926 0.00000
				CHANNELS 3 Zrotation Yrotation Xrotation
				JOINT RightAnkle
				{
					OFFSET -2.57974 -7.08778 0.00000
					CHANNELS 3 Zrotation Yrotation Xrotation
					JOINT RightToe
					{
						OFFSET -0.26704 -0.73369 2.20815
						CHANNELS 3 Zrotation Yrotation Xrotation
						End Site
						{
							OFFSET -0.00000 -0.00000 1.16246
						}
					}
				}
			}
		}
	}
	JOINT lowerback
	{
		OFFSET 0 0 0
		CHANNELS 3 Zrotation Yrotation Xrotation
		JOINT Chest
		{
			OFFSET -0.04690 2.05196 -0.07017
			CHANNELS 3 Zrotation Yrotation Xrotation
			JOINT Chest2
			{
				OFFSET 0.04085 2.05260 0.00800
				CHANNELS 3 Zrotation Yrotation Xrotation
				JOINT lowerneck
				{
					OFFSET 0 0 0
					CHANNELS 3 Zrotation Yrotation Xrotation
					JOINT Neck
					{
						OFFSET -0.03582 1.80995 0.19301
						CHANNELS 3 Zrotation Yrotation Xrotation
						JOINT Head
						{
							OFFSET 0.00952 1.80195 -0.36389
							CHANNELS 3 Zrotation Yrotation Xrotation
							End Site
							{
								OFFSET 0.00392 1.85062 -0.14494
							}
						}
					}
				}
				JOINT LeftCollar
				{
					OFFSET 0 0 0
					CHANNELS 3 Zrotation Yrotation Xrotation
					JOINT LeftShoulder
					{
						OFFSET 3.55224 1.39726 -0.13667
CHANNELS 3 Zrotation Xrotation Yrotation
						JOINT LeftElbow
						{
OFFSET 0 -5.145070 -0.000000
CHANNELS 3 Zrotation Xrotation Yrotation
							JOINT LeftWrist
							{
OFFSET 0 -3.506460 0.000000
CHANNELS 3 Zrotation Xrotation Yrotation
								JOINT lhand
								{
									OFFSET 0 0 0
CHANNELS 3 Zrotation Xrotation Yrotation
									JOINT LFingers
									{
OFFSET 0 -0.629970 0.000000
CHANNELS 3 Zrotation Xrotation Yrotation
										End Site
										{
OFFSET 0 -0.507900 0.000000
										}
									}
								}
								JOINT LThumb
								{
OFFSET 0 0.000000 0.000000
CHANNELS 3 Zrotation Xrotation Yrotation
									End Site
									{
OFFSET 0 -0.515650 0.515650
									}
								}
							}
						}
					}
				}
				JOINT RightCollar
				{
					OFFSET 0 0 0
					CHANNELS 3 Zrotation Yrotation Xrotation
					JOINT RightShoulder
					{
						OFFSET -3.06467 1.61290 -0.28813
CHANNELS 3 Zrotation Xrotation Yrotation
						JOINT RightElbow
						{
OFFSET 0 -5.232000 -0.000000
CHANNELS 3 Zrotation Xrotation Yrotation
							JOINT RightWrist
							{
OFFSET 0 -3.656410 0.000000
CHANNELS 3 Zrotation Xrotation Yrotation
								JOINT rhand
								{
									OFFSET 0 0 0
CHANNELS 3 Zrotation Xrotation Yrotation
									JOINT RFingers
									{
OFFSET 0 -0.656810 0.000000
CHANNELS 3 Zrotation Xrotation Yrotation
										End Site
										{
OFFSET 0 -0.529530 0.000000
										}
									}
								}
								JOINT RThumb
								{
OFFSET 0 0.000000 0.000000
CHANNELS 3 Zrotation Xrotation Yrotation
									End Site
									{
OFFSET 0 -0.537620 0.537620
									}
								}
							}
						}
					}
				}
			}
		}
	}
}
MOTION
Frames: 9
Frame Time: 0.008333333333333333
-0.400700 15.676700 41.772200 -174.831000 -0.725900 -156.737000 0.000000 0.000000 0.000000 -5.246900 -12.923400 -75.748600 12.762500 18.694700 68.386200 -0.244400 -16.558100 -8.994500 3.584800 -11.586400 -34.284100 0.000000 0.000000 0.000000 26.920900 2.413900 6.087600 -2.894800 -10.522800 30.686800 -2.047600 -10.096500 25.705100 -1.231400 7.037600 -19.826700 8.157500 0.090200 16.586100 3.031600 2.337900 0.021000 -1.912100 0.972200 -9.157400 -1.094100 -1.823000 -16.696000 0.526700 -3.034500 -3.542700 0.151000 -1.832800 1.727000 0.000000 0.000000 0.000000 16.339500 47.439500 -50.273700 96.311800 -59.848900 65.463400 24.439600 -19.725900 11.477000 0.000000 0.000000 0.000000 -7.125000 0.000000 0.000000 -1.892800 17.411900 -1.240400 0.000000 0.000000 0.000000 -10.318900 -2.867000 37.693200 -116.922600 -57.075700 -83.086700 -28.765900 -3.778400 -4.348800 0.000000 0.000000 0.000000 7.125000 0.000000 -0.000000 -1.590300 25.021500 -0.768700
-0.386702 15.678092 41.408394 -174.707875 -0.538647 -156.608012 0.000000 0.000000 0.000000 -5.732365 -12.426355 -74.712003 12.686280 18.665897 68.148158 -0.274668 -16.441278 -8.524352 2.629773 -10.005853 -29.055016 0.000000 0.000000 0.000000 26.820201 2.373664 3.605894 -3.842205 -11.902902 35.448008 -1.428529 -9.377097 21.297657 -3.131999 10.618418 -31.285479 7.892927 0.142821 16.413871 3.099319 2.342224 -0.013079 -1.687836 0.987517 -9.108663 -1.035249 -1.718197 -16.700837 0.606585 -2.921269 -3.646624 0.174526 -1.780252 1.692408 0.000000 0.000000 0.000000 14.766722 45.145267 -49.785523 96.479485 -59.840692 65.608439 24.561772 -20.336542 11.497228 0.000000 0.000000 0.000000 -7.125000 0.000000 0.000000 -1.808518 17.377601 -1.186386 0.000000 0.000000 0.000000 -9.502096 -1.640292 38.083903 -112.840193 -57.903497 -79.637362 -28.424667 -3.529658 -4.054179 0.000000 0.000000 0.000000 7.125000 0.000000 0.000000 -1.346468 25.371527 -0.640518
-0.374986 15.697417 41.029171 -174.732866 -0.512227 -156.700733 0.000000 0.000000 0.000000 -6.456401 -12.068857 -73.152945 12.606799 18.635465 67.899636 -0.266324 -16.329765 -8.524033 1.556300 -7.570514 -21.565893 0.000000 0.000000 0.000000 26.612840 2.213585 1.188698 -4.888773 -13.206243 40.235951 -1.073507 -8.595047 18.549729 -3.898060 12.022757 -35.813601 7.630497 0.092320 16.373830 3.142817 2.221487 -0.017395 -1.464551 0.941352 -9.110090 -0.898753 -1.600306 -16.661286 0.610874 -2.798023 -3.721529 0.161441 -1.723372 1.657443 0.000000 0.000000 0.000000 13.304985 42.778932 -49.447326 96.582846 -59.835604 65.697817 24.562238 -20.667626 11.316846 0.000000 0.000000 0.000000 -7.125000 0.000000 0.000000 -1.798713 17.574047 -1.172103 0.000000 0.000000 0.000000 -8.634383 -0.378045 38.319642 -108.250323 -58.653836 -75.729141 -28.006349 -3.253435 -3.815032 0.000000 0.000000 0.000000 7.125000 0.000000 0.000000 -1.040409 25.659839 -0.488255
-0.365115 15.721344 40.641763 -174.862070 -0.575994 -156.953180 0.000000 0.000000 0.000000 -7.358852 -11.781135 -71.172824 12.531269 18.606263 67.663182 -0.208241 -16.277778 -9.144686 0.618571 -4.918413 -13.696592 0.000000 0.000000 0.000000 26.337515 2.011577 -1.144399 -5.999818 -14.403145 44.934729 -0.875354 -8.064618 16.774015 -3.700335 11.702677 -34.748076 7.368243 -0.015592 16.442037 3.158917 2.032309 0.006899 -1.256905 0.861299 -9.144457 -0.655627 -1.680526 -16.623813 0.588420 -2.626779 -3.774052 0.128276 -1.501918 1.628582 0.000000 0.000000 0.000000 11.980732 40.288246 -49.271824 96.573926 -59.836021 65.690093 24.502998 -20.838448 11.178959 0.000000 0.000000 0.000000 -7.125000 0.000000 0.000000 -1.832852 17.730201 -1.188313 0.000000 0.000000 0.000000 -7.712800 0.879531 38.343321 -103.294220 -59.289407 -71.483640 -27.561623 -2.980285 -3.507452 0.000000 0.000000 0.000000 7.125000 0.000000 0.000000 -0.713960 26.023852 -0.329613
-0.356687 15.729992 40.256117 -175.043093 -0.634258 -157.293240 0.000000 0.000000 0.000000 -8.373169 -11.465846 -68.866131 12.471392 18.582883 67.475343 -0.075955 -16.377671 -10.710648 0.228528 -3.001617 -8.290223 0.000000 0.000000 0.000000 26.043920 1.881636 -3.350832 -7.131324 -15.432193 49.352506 -0.691839 -8.307423 15.053487 -2.660513 10.101903 -29.328734 7.103157 -0.118856 16.597482 3.138689 1.851945 0.062232 -1.089806 0.784932 -9.190043 -0.245503 -2.313668 -16.660384 0.610626 -2.341906 -3.811137 0.097568 -0.844590 1.616709 0.000000 0.000000 0.000000 10.854942 37.574361 -49.302532 96.362268 -59.846428 65.507091 24.470898 -21.009431 11.464712 0.000000 0.000000 0.000000 -7.125000 0.000000 0.000000 -1.870302 17.422168 -1.225250 0.000000 0.000000 0.000000 -6.724867 2.069741 38.035727 -98.135860 -59.735809 -67.038820 -27.164764 -2.757781 -2.930302 0.000000 0.000000 0.000000 7.125000 0.000000 0.000000 -0.428647 26.686603 -0.190950
-0.359355 15.777178 39.857448 -175.618130 -0.648138 -157.710376 0.000000 0.000000 0.000000 -9.615456 -11.463443 -66.001973 12.380286 18.546747 67.189167 0.133407 -17.011242 -13.146231 0.117483 -2.157893 -5.944268 0.000000 0.000000 0.000000 25.182428 1.787176 -6.127289 -8.331932 -16.328752 53.702576 -0.601479 -7.904061 14.050156 -2.532504 9.896720 -28.642935 6.678872 -0.323314 16.740503 2.949095 1.469525 0.093114 -0.965497 0.605776 -9.262737 -0.002884 -2.201308 -16.469518 0.610773 -2.140220 -3.817457 0.071312 -0.705328 1.577594 0.000000 0.000000 0.000000 9.694934 34.613570 -49.379552 95.345573 -59.889791 64.627689 25.153470 -19.953790 11.475852 0.000000 0.000000 0.000000 -7.125000 0.000000 0.000000 -1.393874 17.340511 -0.915150 0.000000 0.000000 0.000000 -5.621587 3.191979 37.513188 -91.700910 -59.921086 -61.471361 -27.738919 -2.677732 -2.815404 0.000000 0.000000 0.000000 7.125000 0.000000 0.000000 -0.870431 26.799263 -0.384242
-0.359550 15.805487 39.467292 -176.207533 -0.636388 -158.078235 0.000000 0.000000 0.000000 -10.867400 -11.411183 -63.359869 12.271302 18.502820 66.846015 0.341093 -17.355902 -15.211409 0.048093 -1.082294 -2.978468 0.000000 0.000000 0.000000 24.291955 1.698397 -8.771431 -9.570849 -17.132912 58.004110 -0.482928 -7.647657 12.646853 -2.488292 9.816351 -28.384209 6.175329 -0.497908 16.882800 2.768278 1.111466 0.113212 -0.791203 0.442057 -9.344066 0.186997 -2.038214 -16.329045 0.632964 -1.969632 -3.820410 0.057315 -0.626943 1.549579 0.000000 0.000000 0.000000 8.630534 31.713723 -49.509498 94.585306 -59.920021 63.969934 25.625534 -19.191924 11.488105 0.000000 0.000000 0.000000 -7.125000 0.000000 0.000000 -1.064843 17.278477 -0.700538 0.000000 0.000000 0.000000 -4.577546 4.331492 36.899211 -85.673191 -59.876110 -56.255949 -28.027376 -2.751741 -2.677242 0.000000 0.000000 0.000000 7.125000 0.000000 0.000000 -1.094723 26.947039 -0.479897
-0.356940 15.812926 39.086069 -176.814895 -0.603232 -158.402202 0.000000 0.000000 0.000000 -12.143658 -11.306408 -60.933236 12.143647 18.450546 66.443143 0.548784 -17.390838 -16.913164 0.005912 0.213801 0.587775 0.000000 0.000000 0.000000 23.373051 1.611031 -11.276738 -10.841979 -17.844754 62.252745 -0.337870 -7.551856 10.851540 -2.425068 9.699793 -28.010356 5.597865 -0.601286 17.032012 2.597433 0.771155 0.124078 -0.562271 0.264324 -9.433921 0.341627 -1.897667 -16.252924 0.683986 -1.817993 -3.820903 0.056813 -0.554561 1.534624 0.000000 0.000000 0.000000 7.668035 28.873493 -49.694673 94.114141 -59.935796 63.562131 25.856989 -18.772624 11.518535 0.000000 0.000000 0.000000 -7.125000 0.000000 0.000000 -0.905091 17.220655 -0.596605 0.000000 0.000000 0.000000 -3.597217 5.492237 36.182478 -80.154730 -59.606761 -51.486608 -28.006258 -2.975251 -2.488031 0.000000 0.000000 0.000000 7.125000 0.000000 0.000000 -1.084173 27.161898 -0.469709
-0.355474 15.813073 38.707679 -177.607880 -0.553323 -158.746659 0.000000 0.000000 0.000000 -13.586495 -11.279438 -58.411441 11.986882 18.384952 65.946978 0.794081 -17.336458 -18.730873 0.039185 1.191986 3.277914 0.000000 0.000000 0.000000 22.207172 1.522278 -13.886186 -12.140291 -18.437148 66.418994 -0.217823 -7.364749 9.094074 -2.313449 9.489820 -27.340349 4.923975 -0.532541 17.211057 2.370237 0.336406 0.124518 -0.293081 -0.079987 -9.540409 0.471787 -1.759591 -16.186085 0.773399 -1.665992 -3.810789 0.072643 -0.480613 1.525756 0.000000 0.000000 0.000000 6.789668 25.971549 -49.947226 93.654547 -59.949281 63.164393 26.085430 -18.296613 11.518168 0.000000 0.000000 0.000000 -7.125000 0.000000 0.000000 -0.745761 17.196763 -0.491949 0.000000 0.000000 0.000000 -2.633762 6.656356 35.261018 -74.887463 -59.093813 -46.953694 -28.060052 -3.345872 -2.339621 0.000000 0.000000 0.000000 7.125000 0.000000 0.000000 -1.129613 27.328484 -0.484953
